<?xml version="1.0" encoding="iso-8859-1"?>
<!-- Uploaded to: SVG Repo, www.svgrepo.com, Generator: SVG Repo Mixer Tools -->
<svg fill="#000000" height="800px" width="800px" version="1.1" id="Layer_1" xmlns="http://www.w3.org/2000/svg" xmlns:xlink="http://www.w3.org/1999/xlink" 
	 viewBox="0 0 511.999 511.999" xml:space="preserve">
<g>
	<g>
		<g>
			<path d="M291.628,236.863L173.081,355.411c-4.549,4.549-4.549,11.925,0,16.475c2.275,2.275,5.256,3.412,8.237,3.412
				c2.981,0,5.963-1.137,8.237-3.412l118.547-118.547c4.549-4.549,4.549-11.925,0-16.475
				C303.551,232.314,296.178,232.314,291.628,236.863z"/>
			<path d="M326.137,202.353l-0.2,0.2c-4.549,4.549-4.549,11.925,0,16.475c2.275,2.274,5.256,3.412,8.237,3.412
				c2.981,0,5.962-1.138,8.237-3.412l0.2-0.2c4.549-4.549,4.549-11.925,0-16.475C338.061,197.804,330.688,197.804,326.137,202.353z"
				/>
			<path d="M396.132,280.796L371.336,256l24.796-24.796c12.048,7.117,25.53,10.633,38.976,10.632
				c19.769-0.001,39.464-7.602,54.391-22.529c29.975-29.976,29.975-78.751,0-108.729c-17.868-17.866-42.584-25.469-66.427-21.633
				c3.837-23.842-3.767-48.561-21.633-66.426C386.918,7.997,367.611,0,347.075,0c-20.536,0-39.843,7.997-54.364,22.518
				c-25.081,25.081-29.482,63.605-11.896,93.367l-24.797,24.797l-24.797-24.797c17.584-29.762,13.184-68.286-11.896-93.367
				C204.804,7.997,185.497,0,164.961,0s-39.843,7.997-54.364,22.518c-17.866,17.865-25.47,42.584-21.633,66.426
				c-23.848-3.835-48.562,3.768-66.427,21.634C8.015,125.1,0.018,144.407,0.018,164.943c0,20.536,7.997,39.843,22.519,54.364
				c25.081,25.08,63.605,29.479,93.367,11.896l24.796,24.796l-24.796,24.796c-29.762-17.582-68.288-13.183-93.367,11.897
				c-29.976,29.976-29.976,78.751,0,108.729c14.845,14.844,34.414,22.606,54.289,22.604c4.046,0,8.105-0.322,12.138-0.97
				c-3.838,23.844,3.766,48.56,21.633,66.427c14.522,14.522,33.828,22.518,54.364,22.518c20.536,0,39.843-7.997,54.364-22.518
				c25.081-25.081,29.481-63.605,11.896-93.367l24.796-24.796l24.797,24.796c-17.586,29.762-13.185,68.286,11.896,93.366
				c14.522,14.521,33.828,22.52,54.364,22.52s39.843-7.997,54.364-22.518c17.866-17.866,25.47-42.585,21.633-66.427
				c23.842,3.835,48.562-3.768,66.427-21.633c29.975-29.976,29.975-78.751,0-108.729
				C464.419,267.612,425.895,263.212,396.132,280.796z M125.548,207.902c-2.261-2.261-5.243-3.412-8.239-3.412
				c-2.544,0-5.096,0.829-7.226,2.514c-21.293,16.847-51.847,15.055-71.072-4.17c-10.121-10.121-15.696-23.577-15.696-37.89
				c0-14.313,5.574-27.77,15.696-37.89c16.664-16.664,41.873-20.523,62.732-9.606c4.513,2.362,10.037,1.52,13.64-2.083
				c3.602-3.602,4.445-9.127,2.083-13.64c-10.919-20.857-7.058-46.068,9.606-62.732c10.121-10.121,23.577-15.695,37.89-15.695
				c14.313,0,27.77,5.574,37.89,15.696c19.225,19.225,21.018,49.78,4.17,71.072c-3.668,4.635-3.283,11.285,0.898,15.465
				l31.626,31.626l-82.371,82.371L125.548,207.902z M207.919,386.47c-4.18,4.18-4.566,10.829-0.898,15.465
				c16.848,21.292,15.055,51.847-4.17,71.072c-10.121,10.121-23.577,15.696-37.89,15.696s-27.77-5.574-37.89-15.696
				c-16.664-16.664-20.523-41.873-9.606-62.732c2.362-4.513,1.519-10.038-2.083-13.64c-2.239-2.239-5.221-3.412-8.24-3.412
				c-1.838,0-3.692,0.436-5.399,1.329c-20.857,10.916-46.069,7.058-62.732-9.606c-20.892-20.893-20.892-54.888,0-75.781
				c19.228-19.225,49.782-21.018,71.073-4.17c4.634,3.668,11.284,3.281,15.465-0.898l178.57-178.567
				c4.181-4.181,4.566-10.83,0.898-15.466c-16.849-21.292-15.056-51.846,4.17-71.072c10.121-10.121,23.576-15.695,37.889-15.695
				c14.313,0,27.769,5.574,37.889,15.696c16.665,16.664,20.524,41.873,9.606,62.731c-2.362,4.514-1.519,10.038,2.083,13.64
				s9.127,4.445,13.64,2.084c20.859-10.917,46.069-7.058,62.733,9.605c20.893,20.893,20.893,54.888,0,75.781
				c-19.225,19.225-49.779,21.019-71.074,4.17c-4.635-3.668-11.284-3.281-15.465,0.898L207.919,386.47z M473.026,384.948
				c-16.664,16.665-41.877,20.524-62.733,9.606c-4.513-2.361-10.038-1.519-13.64,2.084c-3.602,3.602-4.445,9.126-2.083,13.64
				c10.919,20.857,7.059,46.067-9.606,62.732c-10.121,10.121-23.576,15.695-37.889,15.695s-27.769-5.574-37.889-15.696
				c-19.227-19.225-21.019-49.78-4.17-71.072c3.668-4.636,3.283-11.285-0.898-15.466l-31.626-31.625l82.37-82.369l31.624,31.625
				c4.181,4.18,10.829,4.566,15.465,0.898c21.294-16.849,51.848-15.053,71.074,4.17
				C493.918,330.059,493.918,364.055,473.026,384.948z"/>
		</g>
	</g>
</g>
</svg>