<?xml version="1.0" encoding="utf-8"?><!-- Uploaded to: SVG Repo, www.svgrepo.com, Generator: SVG Repo Mixer Tools -->
<svg width="800px" height="800px" viewBox="0 0 400 400" fill="none" xmlns="http://www.w3.org/2000/svg">
<path d="M167.914 309.759C160.154 290.67 154.539 271.085 146.983 250.097C141.09 233.731 130.502 216.338 130.502 199.929C130.502 159.108 137.623 148.611 157.63 135.111C167.595 128.388 193.003 121.391 199.645 121.327C211.74 121.21 215.117 126.254 230.544 128.874C251.965 132.513 267.555 143.115 272.508 162.741C280.034 192.57 250.741 315.188 216.768 320.797C196.73 324.104 174.691 324.288 166.202 304.663" stroke="#000000" stroke-opacity="0.9" stroke-width="16" stroke-linecap="round" stroke-linejoin="round"/>
<path d="M243.014 108.63C295.478 43.1052 284.376 92.3759 268.364 139.507" stroke="#000000" stroke-opacity="0.9" stroke-width="16" stroke-linecap="round" stroke-linejoin="round"/>
<path d="M128.874 140.643C109.43 79.4821 113.896 70.5234 160.05 128.224" stroke="#000000" stroke-opacity="0.9" stroke-width="16" stroke-linecap="round" stroke-linejoin="round"/>
<path d="M197.637 275.885C239.575 276.991 196.425 320.868 189.598 280.305" stroke="#000000" stroke-opacity="0.9" stroke-width="16" stroke-linecap="round" stroke-linejoin="round"/>
<path d="M176 188C175.667 185.004 175.333 181.996 175 179" stroke="#000000" stroke-opacity="0.9" stroke-width="16" stroke-linecap="round" stroke-linejoin="round"/>
<path d="M214.602 166.414C222.774 179.854 215.948 196.65 223.098 210.717C232.324 228.875 281.224 193.337 217.999 162.236" stroke="#000000" stroke-opacity="0.9" stroke-width="16" stroke-linecap="round" stroke-linejoin="round"/>
</svg>