<?xml version="1.0" encoding="iso-8859-1"?>
<!-- Uploaded to: SVG Repo, www.svgrepo.com, Generator: SVG Repo Mixer Tools -->
<svg fill="#000000" height="800px" width="800px" version="1.1" id="Layer_1" xmlns="http://www.w3.org/2000/svg" xmlns:xlink="http://www.w3.org/1999/xlink" 
	 viewBox="0 0 512 512" xml:space="preserve">
<g>
	<g>
		<g>
			<path d="M450.188,327.127c-9.889-38.285-25.312-74.087-45.838-106.412c-14.985-23.6-30.907-44.415-44.355-60.542V109.92
				c0-38.657-42.127-79.911-77.466-107.711c-3.105-2.444-7.333-2.899-10.888-1.172c-3.555,1.727-5.811,5.331-5.811,9.283v65.632
				H245.19V10.32c0-3.951-2.257-7.556-5.811-9.283c-3.554-1.726-7.783-1.271-10.888,1.172
				c-35.341,27.8-77.466,69.054-77.466,107.711v51.434c-13.237,15.956-28.749,36.326-43.375,59.361
				c-20.526,32.325-35.948,68.128-45.838,106.412c-12.219,47.298-15.958,98.441-11.112,152.007
				C52.396,497.868,68.185,512,86.645,512c1.085,0,2.182-0.05,3.282-0.15c19.835-1.794,34.512-19.392,32.717-39.227
				c-7.307-80.751,7.725-151.777,44.676-211.101l0.641-1.024c2.683-4.264,7.318-7.154,12.717-7.93
				c8.917-1.283,18.238-5.288,26.75-11.338c6.317,20.806,25.672,35.995,48.515,35.995c22.868,0,42.24-15.224,48.534-36.067
				c8.538,6.091,17.897,10.124,26.85,11.41c5.397,0.776,10.033,3.666,12.715,7.929l0.639,1.021
				c36.954,59.328,51.985,130.354,44.678,211.107c-1.794,19.834,12.883,37.43,32.718,39.225c1.101,0.1,2.195,0.15,3.282,0.15
				c18.459,0,34.25-14.133,35.945-32.866C466.146,425.568,462.407,374.425,450.188,327.127z M286.467,32.277
				c17.49,15.333,31.013,30.145,40.011,43.675h-40.011V32.277z M171.661,109.92c0-20.233,19.04-47.968,52.888-77.643v53.993
				c0,5.698,4.62,10.32,10.32,10.32h102.115c1.56,4.724,2.371,9.187,2.371,13.33v10.062h-43.041c-5.7,0-10.32,4.621-10.32,10.32
				c0,5.698,4.62,10.32,10.32,10.32h43.041v18.833H171.661V109.92z M221.515,187.431c-4.352,11.687-11.674,23.75-18.653,30.728
				c-7.695,7.696-16.853,12.792-25.124,13.981c-11.403,1.639-21.336,7.969-27.251,17.369l-0.687,1.097
				c-39.382,63.228-55.435,138.551-47.715,223.878c0.373,4.117-0.881,8.134-3.528,11.308c-2.648,3.175-6.374,5.13-10.492,5.502
				c-8.497,0.76-16.042-5.522-16.812-14.022c-4.632-51.203-1.087-99.984,10.539-144.985c9.35-36.192,23.911-70.009,43.278-100.51
				c12.601-19.846,25.719-37.43,37.245-51.685h61.529C223.267,182.303,222.519,184.736,221.515,187.431z M285.994,226.531
				c0,16.572-13.484,30.056-30.056,30.056c-16.573,0-30.056-13.483-30.056-30.056v-3.807c6.241-8.635,11.827-19.185,15.543-29.653
				c1.424-4.012,2.719-8.453,3.581-12.977h21.984c0.862,4.524,2.157,8.965,3.581,12.977c3.692,10.402,9.231,20.886,15.423,29.49
				V226.531z M440.743,477.273c-0.769,8.5-8.316,14.777-16.813,14.022c-8.5-0.769-14.79-8.311-14.02-16.812
				c7.72-85.327-8.333-160.65-47.718-223.881l-0.685-1.095c-5.914-9.399-15.846-15.729-27.249-17.368
				c-8.272-1.189-17.429-6.285-25.124-13.98c-6.979-6.979-14.301-19.041-18.653-30.728c-1.004-2.695-1.752-5.128-2.329-7.338h61.523
				c0.001,0,0.002,0,0.004,0c11.526,14.252,24.642,31.833,37.248,51.685c19.368,30.502,33.929,64.318,43.278,100.51
				C441.83,377.291,445.377,426.07,440.743,477.273z"/>
			<path d="M256.454,119.982h-1.032c-5.7,0-10.32,4.621-10.32,10.32c0,5.698,4.62,10.32,10.32,10.32h1.032
				c5.7,0,10.32-4.621,10.32-10.32C266.774,124.603,262.154,119.982,256.454,119.982z"/>
		</g>
	</g>
</g>
</svg>