<?xml version="1.0" encoding="iso-8859-1"?>
<!-- Uploaded to: SVG Repo, www.svgrepo.com, Generator: SVG Repo Mixer Tools -->
<svg fill="#000000" height="800px" width="800px" version="1.1" id="Layer_1" xmlns="http://www.w3.org/2000/svg" xmlns:xlink="http://www.w3.org/1999/xlink" 
	 viewBox="0 0 512 512" xml:space="preserve">
<g>
	<g>
		<g>
			<path d="M495.121,427.604H323.516V84.396h143.473c6.215,0,11.253-5.038,11.253-11.253v-61.89C478.242,5.038,473.204,0,466.989,0
				H45.011c-6.215,0-11.253,5.038-11.253,11.253v61.89c0,6.215,5.038,11.253,11.253,11.253h143.473v343.209H16.879
				c-6.215,0-11.253,5.038-11.253,11.253v61.89c0,6.215,5.038,11.253,11.253,11.253h478.242c6.215,0,11.253-5.038,11.253-11.253
				v-61.89C506.374,432.642,501.336,427.604,495.121,427.604z M56.264,61.89V22.505h399.473V61.89H56.264z M267.253,152.826h33.758
				v56.264h-33.758c-6.215,0-11.253,5.038-11.253,11.253c0,6.215,5.038,11.253,11.253,11.253h33.758v56.264h-33.758
				c-6.215,0-11.253,5.038-11.253,11.253s5.038,11.253,11.253,11.253h33.758v56.264h-33.758c-6.215,0-11.253,5.038-11.253,11.253
				s5.038,11.253,11.253,11.253h33.758v38.471h-90.022v-81.231h15.566c6.215,0,11.253-5.038,11.253-11.253
				s-5.038-11.253-11.253-11.253h-15.566v-56.264h15.566c6.215,0,11.253-5.038,11.253-11.253c0-6.215-5.038-11.253-11.253-11.253
				h-15.566v-56.264h15.566c6.215,0,11.253-5.038,11.253-11.253c0-6.215-5.038-11.253-11.253-11.253h-15.566V84.396h90.022v45.925
				h-33.758c-6.215,0-11.253,5.038-11.253,11.253S261.038,152.826,267.253,152.826z M483.868,489.495H28.132V450.11h455.736V489.495
				z"/>
			<path d="M414.101,206.149c-20.956,5.075-36.571,23.981-36.571,46.475c0,26.371,21.453,47.824,47.824,47.824
				c26.371,0,47.824-21.453,47.824-47.824c0-22.494-15.615-41.4-36.571-46.475v-37.383c0-6.215-5.038-11.253-11.253-11.253
				s-11.253,5.038-11.253,11.253V206.149z M425.354,227.305c13.961,0,25.319,11.357,25.319,25.319
				c0,13.961-11.357,25.319-25.319,25.319s-25.319-11.357-25.319-25.319C400.035,238.663,411.393,227.305,425.354,227.305z"/>
			<path d="M425.354,133.602c6.215,0,11.253-5.038,11.253-11.253v-1.125c0-6.215-5.038-11.253-11.253-11.253
				s-11.253,5.038-11.253,11.253v1.125C414.101,128.564,419.139,133.602,425.354,133.602z"/>
		</g>
	</g>
</g>
</svg>